<svg width="258" height="150" viewBox="0 0 258 150" fill="none" xmlns="http://www.w3.org/2000/svg">
<path d="M58.9229 105.264L58.8854 105.207L59.285 104.327C59.0581 104.292 58.5888 104.205 57.7364 103.992C57.0464 103.819 56.4651 103.659 56.2368 103.596L56.0892 103.894C54.8472 106.397 52.9746 108.581 50.5239 110.386C48.2526 112.059 46.2476 113.116 44.5638 113.53L44 113.668L44.4556 114.253C45.0493 115.056 45.5604 115.984 45.7241 116.289C46.2684 116.063 48.7049 115.044 49.3209 114.644L49.5183 114.516V115.938L49.8984 115.898C50.5495 115.829 51.9984 115.793 54.2056 115.793H56.0356V119.387H53.2285C50.8452 119.387 49.2478 119.351 48.4804 119.282L48.1065 119.248V121.906L48.4799 121.873C49.2725 121.803 50.9064 121.768 53.3376 121.768H56.036V125.895L49.2729 125.873C47.5322 125.873 46.2362 125.795 45.8252 125.766V128.405C46.2404 128.376 47.5645 128.297 49.3607 128.297H65.0083C66.7006 128.297 68.0336 128.377 68.4522 128.406V125.765C68.0374 125.794 66.7205 125.873 64.9679 125.873L58.8939 125.895V121.768H62.6796C64.1626 121.768 65.3965 121.803 66.3466 121.873L66.7148 121.901V119.253L66.3451 119.281C65.4254 119.352 64.192 119.387 62.6796 119.387H58.8939V115.794H61.1586C62.8627 115.794 64.1313 115.829 64.929 115.9L65.3025 115.932V114.427L65.5061 114.577C66.0737 114.994 67.1139 115.508 68.0944 115.856C68.4461 115.981 68.7346 116.08 68.8912 116.134C68.9159 116.057 68.9481 115.966 68.9771 115.886C69.0986 115.552 69.5295 114.63 69.9205 114.057C70.1113 113.777 70.3965 113.439 70.566 113.245L69.9765 113.111C65.5925 112.084 61.5634 109.224 58.9233 105.265L58.9229 105.264ZM62.5799 113.284C62.0631 113.298 61.4789 113.306 60.8316 113.306H54.3138C53.3917 113.306 52.5736 113.295 51.8821 113.271L51.5238 113.26L51.8095 113.047C54.1098 111.334 55.9748 109.479 57.3539 107.532L57.4678 107.372L57.5684 107.541C58.817 109.643 60.5279 111.5 62.6525 113.059L62.9453 113.275L62.5799 113.284Z" fill="#1446A0"/>
<path d="M81.5157 114.032C81.5874 115.041 81.6239 116.182 81.6239 117.422V124.57C81.6239 125.678 81.5883 126.928 81.5153 128.394L81.4977 128.747H84.2649V123.733H89.4449V124.89C89.4449 125.29 89.3955 125.596 89.2968 125.796L89.2783 125.834L89.2403 125.853C89.1255 125.912 88.7154 126.047 87.3976 126.047H86.8195L87.0967 126.545C87.511 127.29 87.7919 127.979 87.9329 128.59L88.0012 128.891L88.313 128.85C89.4396 128.701 90.2815 128.52 90.8856 128.299C91.5947 128.037 91.9985 127.425 92.0858 126.49V117.528C92.0858 116.252 92.1219 115.075 92.194 114.03L92.2182 113.671H81.4901L81.5157 114.032V114.032ZM84.2649 116.051H89.4449V117.62H84.2649V116.051ZM84.2649 119.785H89.4449V121.353H84.2649V119.785Z" fill="#1446A0"/>
<path d="M102.867 123.551L102.437 123.338L102.374 123.809C102.134 125.616 101.722 126.064 101.498 126.17L101.471 126.183H97.6084C97.0034 126.183 96.7566 125.909 96.7566 125.239V122.498L96.8444 122.469C98.5244 121.93 100.054 121.35 101.392 120.745C103.115 119.962 103.699 119.744 103.884 119.698L104.469 119.552L104.042 119.132C103.624 118.723 103.086 118.089 102.444 117.249L102.219 116.954L101.94 117.201C101.242 117.817 100.3 118.41 99.1418 118.961C98.2871 119.369 97.542 119.689 96.927 119.912L96.7556 119.974V119.051C96.7556 118.056 96.7917 117.133 96.8629 116.306L96.8947 115.941H93.9766L94.0074 116.305C94.0786 117.162 94.1147 118.122 94.1147 119.158V126.092C94.1147 127.639 94.9471 128.456 96.5217 128.456H102.387C103.723 128.456 104.676 127.218 105.22 124.777L105.286 124.481L104.994 124.385C104.144 124.108 103.428 123.828 102.867 123.551H102.867Z" fill="#1446A0"/>
<path d="M94.1156 112.088C94.1156 113.818 95.163 114.771 97.065 114.771H101.953C103.434 114.771 104.46 113.534 105.003 111.093L105.066 110.815L104.796 110.709C104.077 110.427 103.355 110.108 102.65 109.76L102.212 109.544L102.156 110.023C101.971 111.596 101.58 112.498 101.085 112.498H97.9344C96.8961 112.498 96.7566 112.021 96.7566 111.555V110.2L96.8439 110.172C98.3293 109.693 99.752 109.129 101.072 108.496C102.801 107.67 103.51 107.382 103.801 107.286L104.283 107.128L103.951 106.748C103.524 106.261 103.015 105.653 102.438 104.944L102.228 104.685L101.961 104.887C101.042 105.581 100.111 106.162 99.193 106.613C98.4745 106.967 97.7147 107.318 96.935 107.656L96.7566 107.734V106.967C96.7566 105.42 96.7917 104.395 96.8614 103.922L96.9184 103.537H93.9813L94.0069 103.897C94.08 104.913 94.1151 105.813 94.1151 106.646V111.195L93.8911 110.938C93.0544 109.979 92.3711 109.187 91.8429 108.564C91.2933 107.917 90.7314 107.204 90.1728 106.447L89.965 106.166L89.6855 106.379C89.0476 106.867 88.4767 107.253 87.9879 107.527L87.5983 107.745L87.9148 108.058C88.1858 108.324 88.603 108.817 89.1905 109.566L89.339 109.755L84.031 110.007L84.2402 109.784C85.1737 108.785 85.9269 107.887 86.6102 106.957C87.1294 106.251 87.9827 104.984 88.2485 104.587L87.7554 104.368C87.2989 104.176 86.6734 103.914 85.7859 103.405C85.6212 103.311 85.4324 103.189 85.3099 103.108L85.1267 103.526C84.4903 104.985 83.647 106.378 82.6191 107.665C81.3634 109.24 80.7294 109.727 80.4181 109.857L80.1001 109.992L80.2406 110.303C80.521 110.925 80.7702 111.661 80.9818 112.49L81.0668 112.824L81.4047 112.733C82.1688 112.528 83.3547 112.351 84.9307 112.21C86.4413 112.075 88.313 111.94 90.6541 111.799L90.7195 111.795L90.7608 111.845C91.0389 112.185 91.2705 112.505 91.449 112.795L91.6397 113.106L91.9416 112.894C92.4479 112.539 93.1005 112.077 93.9144 111.495L94.1151 111.356V112.088L94.1156 112.088Z" fill="#1446A0"/>
<path d="M140.365 115.435C140.365 111.981 140.4 109.438 140.474 107.661L140.488 107.311H134.609L134.609 107.185C134.615 105.825 134.651 104.587 134.715 103.506L134.737 103.15H131.832L131.86 103.512C131.925 104.364 131.961 105.599 131.967 107.185L131.968 107.311H126.089L126.102 107.66C126.174 109.535 126.211 112.187 126.211 115.542C126.211 116.614 126.207 117.614 126.199 118.539L126.198 118.681L126.196 118.957C126.181 120.505 126.155 121.715 126.109 122.96H128.852V121.426H131.967V121.551C131.964 124.563 131.93 126.819 131.859 128.651L131.846 129H134.731L134.717 128.649C134.645 126.921 134.612 124.731 134.609 121.55V121.425H137.616V122.952H140.49L140.474 122.601C140.398 120.921 140.365 118.711 140.365 115.435H140.365ZM131.968 118.938H128.851V115.582H131.968V118.938ZM131.968 113.058H128.851V109.691H131.968V113.058ZM137.725 118.938H134.608V115.582H137.725V118.938ZM137.725 113.058H134.608V109.691H137.725V113.058Z" fill="#1446A0"/>
<path d="M121.44 108.626L121.784 108.326C122.411 107.779 123.007 107.364 123.556 107.095L123.895 106.929L123.693 106.614C122.82 105.259 122.048 104.138 121.397 103.284L121.18 103L120.902 103.228C120.493 103.564 119.931 103.908 119.231 104.253L118.87 104.43L119.107 104.751C120.033 106.013 120.753 107.179 121.246 108.216L121.44 108.626H121.44Z" fill="#1446A0"/>
<path d="M123.573 115.133L123.338 114.809L123.051 115.091C122.883 115.256 122.715 115.415 122.547 115.569L122.334 115.764V115.31L122.35 115.282C122.977 114.181 123.582 113.025 124.147 111.844C124.742 110.604 125.104 109.712 125.256 109.116L125.362 108.698H119.275C118.276 108.698 117.223 108.663 116.148 108.593L115.782 108.568V111.207L116.146 111.185C117.306 111.115 118.395 111.079 119.384 111.079H121.58L121.497 111.256C120.89 112.553 120.089 113.817 119.116 115.012C117.979 116.408 116.647 117.681 115.156 118.795L114.822 119.045L115.138 119.316C115.7 119.799 116.2 120.29 116.625 120.776L116.849 121.032L117.109 120.813C118.105 119.974 118.878 119.263 119.472 118.642L119.693 118.411V125.144C119.693 125.974 119.656 127.081 119.584 128.434L119.566 128.788H122.461L122.442 128.434C122.37 127.095 122.334 125.953 122.334 125.037V117.951L122.57 118.347C123.029 119.114 123.353 119.657 123.54 119.978L123.747 120.331L124.062 120.066C124.543 119.66 125.109 119.279 125.743 118.931L126.063 118.757L125.864 118.454C125.074 117.256 124.303 116.139 123.574 115.134L123.573 115.133Z" fill="#1446A0"/>
<path d="M171.438 122.285L171.381 122.221L171.421 122.146C172.01 121.011 172.463 119.861 172.768 118.726C173.096 117.509 173.372 116.243 173.589 114.961C173.781 113.834 173.95 112.604 174.092 111.306L174.104 111.192L174.221 111.194C174.791 111.205 175.481 111.24 176.268 111.295L176.635 111.32V108.681L176.272 108.703C175.119 108.768 172.739 108.804 169.198 108.807L169.031 108.808L169.075 108.649C169.958 105.543 170.246 104.931 170.343 104.795L170.749 104.396L170.198 104.234C169.473 104.02 168.68 103.737 167.843 103.393L167.421 103.219L167.37 103.666C167.299 104.282 167.137 105.242 166.885 106.518C166.635 107.778 166.164 109.322 165.488 111.106C165.413 111.306 165.336 111.501 165.256 111.693L165.012 111.646V110.789L164.627 110.836C164.239 110.885 163.707 110.917 163.001 110.932L162.746 110.938L162.895 110.734C163.516 109.884 164.049 109.082 164.477 108.353C165.133 107.239 165.429 106.847 165.563 106.715L165.885 106.399L165.488 106.182C164.845 105.832 164.195 105.442 163.556 105.023L163.175 104.774L163.04 105.203C162.869 105.736 162.664 106.266 162.432 106.778L162.188 106.727V106.223L161.823 106.248C160.958 106.305 160.176 106.339 159.496 106.349L159.366 106.351L159.367 106.223C159.375 105.224 159.41 104.349 159.472 103.625L159.503 103.26H156.585L156.616 103.625C156.678 104.357 156.713 105.233 156.721 106.226L156.722 106.353L156.594 106.353C155.273 106.346 154.124 106.311 153.179 106.248L152.814 106.223V108.862L153.178 108.841C154.2 108.779 155.35 108.744 156.597 108.736L156.724 108.735V110.941L156.597 110.941C154.194 110.937 152.435 110.903 151.221 110.836L150.858 110.815V113.448L151.22 113.428C152.38 113.367 154.309 113.331 156.954 113.324L157.294 113.323L157.039 113.542C156.524 113.987 155.885 114.503 155.138 115.076L155.103 115.102H153.9V115.886L153.836 115.922C152.698 116.569 151.583 117.128 150.52 117.584L150.025 117.797L150.431 118.146C150.99 118.626 151.485 119.147 151.903 119.694L152.088 119.935L152.352 119.783C153.539 119.097 154.713 118.332 155.843 117.507L155.877 117.482H158.886L158.563 117.709C158.192 117.97 157.809 118.223 157.426 118.461L157.223 118.588L157.276 118.819C157.389 119.317 157.456 119.875 157.478 120.477L157.482 120.588L157.369 120.605C154.135 121.065 152.015 121.332 151.068 121.398L150.6 121.43L151.766 124.291L152.076 124.184C153.193 123.796 154.964 123.401 157.336 123.007L157.485 122.983V124.827C157.485 124.994 157.432 125.121 157.318 125.226C157.138 125.391 156.706 125.588 155.676 125.588C155.455 125.588 155.204 125.579 154.919 125.558L154.26 125.51L154.6 126.066C155.006 126.73 155.245 127.436 155.313 128.164L155.344 128.495L155.681 128.47C158.712 128.241 160.207 127.269 160.125 125.573V122.549L160.231 122.531C162.815 122.09 164.313 121.856 164.562 121.856H164.905V119.405L164.498 119.481C163.163 119.732 161.74 119.958 160.27 120.155L160.125 120.175V119.433L160.17 119.395C160.685 118.965 161.221 118.572 161.761 118.229C162.357 117.85 162.906 117.554 163.392 117.35L163.6 117.261V116.216L163.818 116.432C164.125 116.738 164.391 117.044 164.608 117.343L164.901 117.744L165.939 116.169L166.013 116.441C166.548 118.391 167.261 120.272 168.134 122.031L168.171 122.107L168.114 122.17C166.38 124.059 164.127 125.455 161.414 126.32L160.883 126.49L161.277 126.878C161.83 127.421 162.247 127.966 162.517 128.498L162.661 128.78L162.956 128.658C165.568 127.577 167.794 126.126 169.573 124.345L169.665 124.253L169.756 124.346C171.411 126.04 173.156 127.344 174.945 128.223L175.286 128.39L175.419 128.04C175.616 127.522 176.097 126.921 176.849 126.25L177.279 125.868L176.73 125.683C174.592 124.961 172.812 123.818 171.438 122.285ZM159.364 108.737L159.493 108.738C160.024 108.745 160.563 108.764 161.106 108.794L161.323 108.807L161.206 108.986C160.727 109.723 160.245 110.367 159.774 110.899L159.737 110.942H159.364V108.737ZM164.378 113.588C164.094 114.121 163.797 114.613 163.494 115.048L163.456 115.103H158.925L160.894 113.323H160.943C162.18 113.325 163.301 113.352 164.272 113.405L164.468 113.416L164.378 113.588ZM169.855 119.296L169.748 119.578L169.62 119.304C168.891 117.753 168.225 115.611 167.641 112.94L167.633 112.904L167.646 112.869C167.823 112.405 168.023 111.872 168.247 111.27L168.277 111.189H171.461L171.446 111.327C171.081 114.785 170.546 117.466 169.855 119.296H169.855Z" fill="#1446A0"/>
<path d="M202.322 105.298L203.121 104.514L202.671 104.329C201.83 103.985 201.235 103.719 200.285 103.287L200.048 103.172L199.977 103.317C199.135 105.041 197.503 106.975 195.128 109.064C192.751 111.155 190.22 112.672 187.606 113.572L186.815 113.845C186.815 113.845 186.983 113.953 187.424 114.3C187.963 114.723 188.091 114.751 188.719 115.341C189.194 115.788 189.46 116.106 189.46 116.106L189.716 115.962C191.255 115.098 192.753 114.122 194.207 113.036V114.967L194.559 114.94C195.496 114.87 196.654 114.835 197.998 114.835H202.653C204.138 114.835 205.442 114.871 206.528 114.94L206.876 114.963V112.821C208.342 113.781 209.958 114.656 211.719 115.444L212.006 115.572L212.147 115.296C212.486 114.628 212.971 114.017 213.587 113.477L214 113.116L213.477 112.935C208.549 111.232 204.797 108.665 202.321 105.299L202.322 105.298ZM202.653 112.491H197.89C196.804 112.491 195.841 112.466 195.016 112.417C196.997 110.864 198.889 109.106 200.678 107.155C202.152 109.102 204.018 110.856 206.256 112.403C205.303 112.462 204.092 112.491 202.653 112.491H202.653Z" fill="#1446A0"/>
<path d="M206.009 117.382H195.183C193.383 117.382 191.604 117.346 189.893 117.276L189.552 117.262V119.739L189.893 119.724C191.556 119.654 193.372 119.619 195.291 119.619H197.781C197.12 120.439 196.138 121.447 194.852 122.624C193.308 124.037 191.967 124.925 190.864 125.264L190.518 125.37L190.661 125.697C190.863 126.159 191.137 126.831 191.522 127.812L191.628 128.081L191.912 128.006C192.967 127.73 195.367 127.483 199.045 127.273C202.836 127.055 205.364 126.922 206.975 126.853C207.369 127.201 207.755 127.558 208.017 127.836C208.294 128.13 208.549 128.439 208.549 128.439L208.825 128.195C209.544 127.559 210.155 127.028 210.659 126.605L210.92 126.385L210.221 125.708C208.839 124.405 208.537 124.248 207.591 123.352C206.651 122.465 205.619 121.58 204.608 120.657L204.378 120.446L204.155 120.665C203.667 121.144 203.164 121.603 202.657 122.031L202.373 122.27L202.653 122.514C203.648 123.384 204.459 124.135 205.073 124.755C202.725 124.875 199.57 124.996 195.67 125.115C198.678 122.597 200.434 121.158 200.895 120.834L201.31 120.542L200.866 120.294C200.564 120.126 200.245 119.9 199.911 119.619H205.576C207.637 119.619 209.563 119.654 211.3 119.725L211.64 119.738V117.262L211.3 117.276C209.589 117.346 207.809 117.382 206.009 117.382H206.009Z" fill="#1446A0"/>
<path d="M146.21 30.4678L143.088 36.3735L136.411 36.6419L142.321 39.7604L142.589 46.4337L145.71 40.528L152.387 40.2595L146.478 37.141L146.21 30.4678Z" fill="#1446A0"/>
<path d="M223.982 22.2937C221.725 21.2149 175.133 20 159.734 20C88.6282 20 34 26.005 34 40.8446C34 53.0824 71.0804 67.5548 124.027 72.2116V89H133.426V72.9227C140.691 73.3841 148.213 73.6604 155.945 73.7224C156.225 73.7247 156.263 73.3183 155.988 73.2652C147.89 71.7018 140.353 70.1131 133.426 68.5115V58.3609H148.807V48.968H133.426V33.9663H124.027V48.968H108.646V58.3609H124.027V66.235C94.0805 58.6218 78.376 50.8446 82.6009 44.1509C87.0888 37.0405 116.595 31.6791 151.155 28.4287C171.365 26.5278 194.957 24.2253 218.975 22.7075C218.975 22.7075 224.344 22.4666 223.982 22.2937Z" fill="#1446A0"/>
</svg>
